<svg xmlns="http://www.w3.org/2000/svg" viewBox="0 0 512 512" id="paypal">
  <path fill="#E9ECED" d="M391.4 415.5H120.6c-13.6 0-24.7-11.1-24.7-24.7V121.1c0-13.6 11.1-24.7 24.7-24.7h270.9c13.6 0 24.7 11.1 24.7 24.7v269.7c-.1 13.7-11.1 24.7-24.8 24.7z"></path>
  <path fill="#414042" d="M391.4 424.3H120.6c-18.5 0-33.5-15-33.5-33.5V121.1c0-18.5 15-33.5 33.5-33.5h270.9c18.5 0 33.5 15 33.5 33.5v269.7c-.1 18.5-15.1 33.5-33.6 33.5zM120.6 105.2c-8.8 0-15.9 7.1-15.9 15.9v269.7c0 8.8 7.1 15.9 15.9 15.9h270.9c8.8 0 15.9-7.1 15.9-15.9V121.1c0-8.8-7.1-15.9-15.9-15.9H120.6z"></path>
  <path fill="#263A83" d="m179.9 294.9 25-156.3s2.1-5.9 7.3-5.9h64.9s43-.4 47.7 31.9c0 0 4.3 36.2-22.6 59.2 0 0-14.6 14.4-44.8 13.8H238s-6.8-.3-8 6.9c-1.2 7.2-8.5 56.3-8.5 56.3h-36.7c-1.2 0-2.4-.4-3.3-1.1-1-.9-2-2.4-1.6-4.8z"></path>
  <path fill="#232C66" d="M324.4 181c-1.7 12.5-6.9 29.8-22.1 42.8 0 0-14.6 14.4-44.8 13.8H238s-5.3-.3-7.3 4.6l9.5-60.1c1.2-7.6 8-7.2 8-7.2h38.1c22 0 33.1 3.7 38.1 6.1z"></path>
  <path fill="#2299D6" d="m240.2 182.1-21 133.5s-1.3 6.2 4.5 6.2h31.5s4.8-.3 5.9-5.8c1.1-5.5 6.4-40.8 6.4-40.8s1.3-5.7 7-5.7h6.1s49.7 3.4 58.1-45.5c0 0 7-27.8-10.9-40.9 0 0-8.6-8.2-41.5-8.2h-38.1s-6.8-.4-8 7.2z"></path>
  <path fill="#232C66" d="M324.4 181c-1.7 12.5-6.9 29.8-22.1 42.8 0 0-14.6 14.4-44.8 13.8H238s-5.3-.3-7.3 4.6l9.5-60.1c1.2-7.6 8-7.2 8-7.2h38.1c22 0 33.1 3.7 38.1 6.1z"></path>
  <path fill="#273982" d="M176.6 332.3h-17.1c-2.5 0-2.7 2.4-2.7 2.4l-7 43.3c-.2 1 .4 1.5.9 1.7.3.1.5.1.8.1h8.1c2.1 0 2.3-1.8 2.3-1.8s1.4-9.8 1.8-11.9c.4-2 2.4-2.2 2.4-2.2h6.6c11.2 0 18.7-7.5 18.8-19.9s-14.9-11.7-14.9-11.7zm1.8 14.7c-.3 4.7-1.8 7.5-8.9 7.5h-4l1.6-11.5s.1-1.3 1.8-1.3h4.3c.1 0 5.6 0 5.2 5.3zm49.4 1.2h-8.4c-1.1 0-1.3.9-1.3.9l-.6 2.4c-1.1-1.6-3.5-4.2-10.3-4.2s-16.5 5.5-18.3 16.2c-1.8 10.7 5 17.1 13 17.1s11.7-4.7 11.7-4.7 0 .6-.3 2.3c-.2 1.6 1.3 1.6 1.3 1.6h7.3c2.4 0 2.6-2.2 2.6-2.2l4.3-27.8c.3-1.8-1-1.6-1-1.6zm-11.6 15.9c-.7 4.4-4.9 8-9.3 8-4.5 0-7.5-3.6-6.8-8 .7-4.4 4.9-8 9.3-8s7.4 3.6 6.8 8z"></path>
  <path fill="#2299D6" d="M298.8 332.3h-17.1c-2.5 0-2.7 2.4-2.7 2.4l-7 43.3c-.2 1 .4 1.5.9 1.7.3.1.5.1.8.1h8.1c2.1 0 2.3-1.8 2.3-1.8s1.4-9.8 1.8-11.9c.4-2 2.4-2.2 2.4-2.2h6.6c11.2 0 18.7-7.5 18.8-19.9s-14.9-11.7-14.9-11.7zm1.8 14.7c-.3 4.7-1.8 7.5-8.9 7.5h-4l1.6-11.5s.1-1.3 1.8-1.3h4.3c.2 0 5.6 0 5.2 5.3zm49.4 1.2h-8.4c-1.1 0-1.3.9-1.3.9l-.6 2.4c-1.1-1.6-3.5-4.2-10.3-4.2-6.8 0-16.5 5.5-18.3 16.2-1.8 10.7 5 17.1 13 17.1 7.9 0 11.7-4.7 11.7-4.7s0 .6-.3 2.3c-.2 1.6 1.3 1.6 1.3 1.6h7.3c2.4 0 2.6-2.2 2.6-2.2l4.3-27.8c.3-1.8-1-1.6-1-1.6zm-11.6 15.9c-.7 4.4-4.9 8-9.3 8-4.5 0-7.5-3.6-6.8-8 .7-4.4 4.9-8 9.3-8s7.5 3.6 6.8 8z"></path>
  <path fill="#273982" d="M233.2 350.6s-.8-2.4.9-2.4h8.7s1.6.2 2.3 2.4c.7 2.2 4.6 15.1 4.6 15.1l10.9-16.3s.8-1.3 2.8-1.3h7.9s2.2.1 1.3 1.8c-.9 1.7-27.2 39.3-27.2 39.3s-1 1.5-3.3 1.5h-7.7s-2.1-.3-.7-2.2c1.4-2 8.4-11.9 8.4-11.9l-8.9-26z"></path>
  <path fill="#2299D6" d="m359.3 333.9-6.8 43.6s-.5 2.3 1.8 2.3h6.9s1.7.1 2-2.3 6.7-43.2 6.7-43.2.5-2-1.1-2h-7.7c-.4 0-.8.1-1.1.3-.2.3-.6.7-.7 1.3z"></path>
</svg>
