<svg xmlns="http://www.w3.org/2000/svg" width="256" height="256" fill="none" viewBox="0 0 256 256" id="mastercard">
  <path fill="url(#paint0_linear_533_5485)" fill-rule="evenodd" d="M58.7042 58.7042C48.8797 68.5258 45.3321 82.2477 48.0614 94.8868C37.1932 101.897 30 114.109 30 128C30 141.892 37.1942 154.103 48.0614 161.112C45.3331 173.751 48.8807 187.473 58.7042 197.297C68.5267 207.119 82.2487 210.667 94.8878 207.94C101.897 218.806 114.109 226 128 226C141.892 226 154.103 218.806 161.112 207.94C173.751 210.667 187.473 207.119 197.297 197.297C207.119 187.473 210.667 173.751 207.94 161.112C218.806 154.103 226 141.892 226 128C226 114.109 218.806 101.897 207.94 94.8878C210.667 82.2487 207.119 68.5258 197.297 58.7032C187.473 48.8807 173.751 45.3331 161.112 48.0604C154.103 37.1942 141.892 30 128 30C114.109 30 101.897 37.1942 94.8878 48.0614C82.2487 45.3331 68.5267 48.8807 58.7042 58.7042Z" clip-rule="evenodd"></path>
  <path fill="url(#paint1_linear_533_5485)" fill-rule="evenodd" d="M48.0614 161.112C37.1942 154.103 30 141.892 30 128C30 114.109 37.1932 101.897 48.0614 94.8868C45.3321 82.2477 48.8797 68.5258 58.7042 58.7042C68.5267 48.8807 82.2487 45.3331 94.8878 48.0614C101.897 37.1942 114.109 30 128 30C141.892 30 154.103 37.1942 161.112 48.0604C173.751 45.3331 187.473 48.8807 197.297 58.7032C207.119 68.5258 210.667 82.2487 207.94 94.8878C218.806 101.897 226 114.109 226 128C226 141.892 218.806 154.103 207.94 161.112C210.667 173.751 207.119 187.473 197.297 197.297C187.473 207.119 173.751 210.667 161.112 207.94C154.103 218.806 141.892 226 128 226C114.109 226 101.897 218.806 94.8878 207.94C82.2487 210.667 68.5267 207.119 58.7042 197.297C48.8807 187.473 45.3331 173.751 48.0614 161.112Z" clip-rule="evenodd"></path>
  <path fill="#FF5F00" d="M109.975 95.6172H146.026V160.396H109.975V95.6172Z"></path>
  <path fill="#EB001B" d="M112.264 128.004C112.264 114.842 118.444 103.168 127.943 95.6142C120.962 90.1207 112.15 86.8018 102.536 86.8018C79.7601 86.8018 61.334 105.228 61.334 128.004C61.334 150.779 79.7601 169.205 102.536 169.205C112.15 169.205 120.962 165.887 127.943 160.393C118.444 152.953 112.264 141.165 112.264 128.004Z"></path>
  <path fill="#F79E1B" d="M194.666 128.004C194.666 150.779 176.24 169.205 153.464 169.205C143.85 169.205 135.038 165.887 128.057 160.393C137.67 152.839 143.736 141.165 143.736 128.004C143.736 114.842 137.556 103.168 128.057 95.6142C135.038 90.1207 143.85 86.8018 153.464 86.8018C176.24 86.8018 194.666 105.343 194.666 128.004Z"></path>
  <defs>
    <linearGradient id="paint0_linear_533_5485" x1="226" x2="30" y1="226" y2="30" gradientUnits="userSpaceOnUse">
      <stop stop-color="#ACCCFF" stop-opacity="0"></stop>
      <stop offset="1" stop-color="#fff"></stop>
    </linearGradient>
    <linearGradient id="paint1_linear_533_5485" x1="226" x2="30" y1="226" y2="30" gradientUnits="userSpaceOnUse">
      <stop stop-color="#ACCCFF" stop-opacity="0"></stop>
      <stop offset="1" stop-color="#fff"></stop>
    </linearGradient>
  </defs>
</svg>
